:FULLY-SPECIFIED
:FORCE-ALL-JOINTS-BE-3DOF
:DEGREES
1121
root 0.913765 14.4975 -28.1191 3.07807 1.13986 4.39266
lfemur -31.0954 11.3925 -25.6261
ltibia 70.8722 -0 0
lfoot -25.437 30.0266 0.0202383
ltoes -13.0986 0 0
rfemur -48.524 -11.7624 14.1441
rtibia 94.811 -0 0
rfoot -4.83955 -1.5769 0.124681
rtoes -10.4343 0 0
lowerback 14.3232 1.25695 -10.4982
upperback -0.735786 -0.0270537 0.964991
thorax -8.90331 0.511339 7.08214
lowerneck -5.38407 -1.87996 -4.08493
upperneck 4.01694 -2.41256 4.40044
head 2.60685 -1.20922 1.80403
lclavicle 5.71257e-14 1.35174e-14 0
lhumerus 41.5714 -27.8075 56.4468
lradius 88.2701 -0 0
lwrist 37.6441 0 0
lhand -28.3575 29.4454 -1.47417
lfingers 7.12502 -0 0
lthumb -1.73584 59.1188 -1.44304
rclavicle 5.71257e-14 1.35174e-14 0
rhumerus -11.9915 28.2964 -74.8663
rradius 86.0368 -0 0
rwrist -29.2968 0 0
rhand -25.7409 -49.6343 -0.497732
rfingers 7.12502 -0 0
rthumb 0.798399 -79.4472 -0.496188
1122
root 0.881864 14.4935 -27.9232 2.73858 2.24711 4.54744
lfemur -29.6255 11.2273 -25.2445
ltibia 70.3614 -0 0
lfoot -25.6887 30.2894 0.0176771
ltoes -13.0744 0 0
rfemur -48.6125 -11.7743 13.712
rtibia 93.4293 -0 0
rfoot -4.38506 -1.16978 0.136543
rtoes -10.0461 0 0
lowerback 14.2612 1.35776 -10.5745
upperback -0.696209 0.0942872 0.853253
thorax -8.84667 0.565584 6.97767
lowerneck -5.2422 -2.30983 -4.4548
upperneck 4.2091 -2.98854 4.72196
head 2.69673 -1.49736 1.92957
lclavicle 5.71257e-14 1.35174e-14 0
lhumerus 37.2787 -29.0702 58.4606
lradius 89.0076 -0 0
lwrist 38.227 0 0
lhand -27.6224 28.5037 -1.56449
lfingers 7.12502 -0 0
lthumb -1.02631 58.1639 -1.53142
rclavicle 5.71257e-14 1.35174e-14 0
rhumerus -8.18868 28.1007 -72.264
rradius 86.1341 -0 0
rwrist -27.4128 0 0
rhand -26.3476 -49.4468 -0.52146
rfingers 7.12502 -0 0
rthumb 0.212661 -79.251 -0.519898
1123
root 0.849964 14.4894 -27.7272 2.39604 3.3666 4.68973
lfemur -28.1434 11.0564 -24.8424
ltibia 69.8437 -0 0
lfoot -25.9407 30.5437 0.0149528
ltoes -13.056 0 0
rfemur -48.6721 -11.7881 13.2656
rtibia 91.9823 -0 0
rfoot -3.92905 -0.766917 0.147369
rtoes -9.66161 0 0
lowerback 14.1963 1.45998 -10.6447
upperback -0.65647 0.219116 0.742063
thorax -8.78861 0.621188 6.86938
lowerneck -5.09411 -2.7443 -4.83138
upperneck 4.40419 -3.5733 5.04685
head 2.78852 -1.78951 2.05672
lclavicle 5.71257e-14 1.35174e-14 0
lhumerus 32.8043 -30.2125 60.6353
lradius 89.7623 -0 0
lwrist 38.8122 0 0
lhand -26.8713 27.5412 -1.64344
lfingers 7.12502 -0 0
lthumb -0.301234 57.188 -1.60868
rclavicle 5.71257e-14 1.35174e-14 0
rhumerus -4.3507 27.7486 -69.6345
rradius 86.2606 -0 0
rwrist -25.5018 0 0
rhand -26.9607 -49.2408 -0.541645
rfingers 7.12502 -0 0
rthumb -0.379219 -79.036 -0.540067
1124
root 0.818064 14.4854 -27.5313 2.05129 4.4958 4.81956
lfemur -26.6525 10.8788 -24.4222
ltibia 69.3197 -0 0
lfoot -26.1923 30.7897 0.0121199
ltoes -13.0435 0 0
rfemur -48.705 -11.8038 12.8066
rtibia 90.4776 -0 0
rfoot -3.47293 -0.368816 0.156998
rtoes -9.28156 0 0
lowerback 14.129 1.56334 -10.709
upperback -0.616722 0.346953 0.631585
thorax -8.72946 0.677973 6.75773
lowerneck -4.94014 -3.18225 -5.21374
upperneck 4.6012 -4.16541 5.37418
head 2.88183 -2.08495 2.18511
lclavicle 5.71257e-14 1.35174e-14 0
lhumerus 28.1627 -31.2143 62.9603
lradius 90.5318 -0 0
lwrist 39.3992 0 0
lhand -26.1066 26.562 -1.70995
lfingers 7.12502 -0 0
lthumb 0.436948 56.1953 -1.67377
rclavicle 5.71257e-14 1.35174e-14 0
rhumerus -0.502124 27.2361 -67.0022
rradius 86.3955 -0 0
rwrist -23.5692 0 0
rhand -27.5786 -49.0179 -0.558082
rfingers 7.12502 -0 0
rthumb -0.975763 -78.8035 -0.556492
1125
root 0.786163 14.4814 -27.3354 1.70512 5.63218 4.937
lfemur -25.1558 10.6939 -23.9864
ltibia 68.7898 -0 0
lfoot -26.4427 31.0276 0.00922764
ltoes -13.037 0 0
rfemur -48.7137 -11.8213 12.3371
rtibia 88.9226 -0 0
rfoot -3.01813 0.0240318 0.1653
rtoes -8.90649 0 0
lowerback 14.0597 1.66754 -10.7679
upperback -0.577114 0.477319 0.521979
thorax -8.66955 0.735758 6.64316
lowerneck -4.78062 -3.62253 -5.60096
upperneck 4.79913 -4.76346 5.70302
head 2.97624 -2.38296 2.3144
lclavicle 5.71257e-14 1.35174e-14 0
lhumerus 23.3733 -32.0574 65.4195
lradius 91.3134 -0 0
lwrist 39.9876 0 0
lhand -25.331 25.5705 -1.76313
lfingers 7.12502 -0 0
lthumb 1.18574 55.1903 -1.72583
rclavicle 5.71257e-14 1.35174e-14 0
rhumerus 3.33292 26.5623 -64.3908
rradius 86.5437 -0 0
rwrist -21.6202 0 0
rhand -28.1998 -48.7792 -0.570605
rfingers 7.12502 -0 0
rthumb -1.57549 -78.555 -0.569005
1126
root 0.754263 14.4773 -27.1395 1.35833 6.7732 5.04217
lfemur -23.6568 10.501 -23.5373
ltibia 68.2548 -0 0
lfoot -26.6911 31.2574 0.00632002
ltoes -13.0364 0 0
rfemur -48.7002 -11.8403 11.8589
rtibia 87.3251 -0 0
rfoot -2.56604 0.411125 0.17217
rtoes -8.53696 0 0
lowerback 13.9888 1.77232 -10.8215
upperback -0.537792 0.609734 0.413404
thorax -8.60919 0.794359 6.52612
lowerneck -4.61593 -4.06404 -5.99211
upperneck 4.99705 -5.36602 6.03249
head 3.07137 -2.68282 2.44421
lclavicle 5.71257e-14 1.35174e-14 0
lhumerus 18.4606 -32.7258 67.9914
lradius 92.1048 -0 0
lwrist 40.5767 0 0
lhand -24.547 24.5711 -1.80228
lfingers 7.12502 -0 0
lthumb 1.94263 54.1772 -1.76415
rclavicle 5.71257e-14 1.35174e-14 0
rhumerus 7.13158 25.7293 -61.8233
rradius 86.704 -0 0
rwrist -19.6599 0 0
rhand -28.8227 -48.5262 -0.579082
rfingers 7.12502 -0 0
rthumb -2.17692 -78.2918 -0.577474
1127
root 0.722362 14.4733 -26.9436 1.01173 7.91632 5.13525
lfemur -22.1586 10.2999 -23.0773
ltibia 67.7153 -0 0
lfoot -26.9367 31.4792 0.00343673
ltoes -13.042 0 0
rfemur -48.6669 -11.8609 11.3741
rtibia 85.6925 -0 0
rfoot -2.1181 0.791963 0.177529
rtoes -8.17355 0 0
lowerback 13.9169 1.87738 -10.8703
upperback -0.4989 0.743716 0.306019
thorax -8.54872 0.853592 6.40707
lowerneck -4.44648 -4.50566 -6.38623
upperneck 5.19403 -5.97162 6.36172
head 3.16683 -2.98381 2.57421
lclavicle 5.71257e-14 1.35174e-14 0
lhumerus 13.454 -33.2065 70.6494
lradius 92.9034 -0 0
lwrist 41.1663 0 0
lhand -23.7572 23.568 -1.82689
lfingers 7.12502 -0 0
lthumb 2.70505 53.1604 -1.78827
rclavicle 5.71257e-14 1.35174e-14 0
rhumerus 10.873 24.7424 -59.3204
rradius 86.8749 -0 0
rwrist -17.6938 0 0
rhand -29.4459 -48.2601 -0.583423
rfingers 7.12502 -0 0
rthumb -2.77856 -78.0153 -0.581808
1128
root 0.690462 14.4693 -26.7477 0.666105 9.05901 5.21649
lfemur -20.6645 10.0902 -22.6087
ltibia 67.1719 -0 0
lfoot -27.1787 31.6934 0.000613487
ltoes -13.0536 0 0
rfemur -48.6161 -11.8829 10.8845
rtibia 84.0325 -0 0
rfoot -1.67572 1.16604 0.181323
rtoes -7.81685 0 0
lowerback 13.8442 1.98244 -10.9145
upperback -0.46058 0.878783 0.19998
thorax -8.48844 0.913268 6.28646
lowerneck -4.27271 -4.94629 -6.78237
upperneck 5.38919 -6.5788 6.68987
head 3.26224 -3.28521 2.70405
lclavicle 5.71257e-14 1.35174e-14 0
lhumerus 8.38661 -33.4906 73.3624
lradius 93.7067 -0 0
lwrist 41.7557 0 0
lhand -22.9645 22.5656 -1.83668
lfingers 7.12502 -0 0
lthumb 3.47043 52.1444 -1.79788
rclavicle 5.71257e-14 1.35174e-14 0
rhumerus 14.539 23.609 -56.9002
rradius 87.0552 -0 0
rwrist -15.7269 0 0
rhand -30.0677 -47.9823 -0.583579
rfingers 7.12502 -0 0
rthumb -3.37892 -77.7268 -0.581961
1129
root 0.658561 14.4652 -26.5517 0.322281 10.1987 5.28618
lfemur -19.1776 9.87186 -22.1341
ltibia 66.6252 -0 0
lfoot -27.4164 31.8998 -0.00211742
ltoes -13.0715 0 0
rfemur -48.5499 -11.9064 10.392
rtibia 82.3525 -0 0
rfoot -1.24031 1.53286 0.183525
rtoes -7.46742 0 0
lowerback 13.7712 2.08723 -10.9544
upperback -0.422971 1.01445 0.0954439
thorax -8.42867 0.973199 6.16472
lowerneck -4.09507 -5.38486 -7.17955
upperneck 5.58168 -7.18607 7.01613
head 3.35722 -3.58628 2.8334
lclavicle 5.71257e-14 1.35174e-14 0
lhumerus 3.29468 -33.5733 76.0967
lradius 94.5121 -0 0
lwrist 42.3445 0 0
lhand -22.1713 21.5683 -1.83154
lfingers 7.12502 -0 0
lthumb 4.23619 51.1336 -1.79289
rclavicle 5.71257e-14 1.35174e-14 0
rhumerus 18.114 22.3394 -54.5782
rradius 87.2433 -0 0
rwrist -13.7647 0 0
rhand -30.6866 -47.6941 -0.579545
rfingers 7.12502 -0 0
rthumb -3.9765 -77.4278 -0.577926
1130
root 0.626661 14.4612 -26.3558 -0.0189094 11.3329 5.34469
lfemur -17.7012 9.64504 -21.6556
ltibia 66.0758 -0 0
lfoot -27.6488 32.0988 -0.00472664
ltoes -13.0956 0 0
rfemur -48.4708 -11.9313 9.89866
rtibia 80.6601 -0 0
rfoot -0.813293 1.8919 0.184129
rtoes -7.12585 0 0
lowerback 13.6983 2.19146 -10.9903
upperback -0.386209 1.15024 -0.00743591
thorax -8.36974 1.03319 6.04231
lowerneck -3.91408 -5.82028 -7.57676
upperneck 5.77066 -7.79192 7.33971
head 3.45142 -3.88629 2.96194
lclavicle 5.71257e-14 1.35174e-14 0
lhumerus -1.78458 -33.4546 78.8172
lradius 95.3171 -0 0
lwrist 42.9322 0 0
lhand -21.3804 20.5805 -1.8116
lfingers 7.12502 -0 0
lthumb 4.99976 50.1323 -1.77342
rclavicle 5.71257e-14 1.35174e-14 0
rhumerus 21.5856 20.9453 -52.3665
rradius 87.438 -0 0
rwrist -11.8122 0 0
rhand -31.3011 -47.3967 -0.57136
rfingers 7.12502 -0 0
rthumb -4.56982 -77.1196 -0.569744
1131
root 0.594761 14.4572 -26.1599 -0.356606 12.4591 5.39242
lfemur -16.2384 9.40999 -21.1755
ltibia 65.5244 -0 0
lfoot -27.8753 32.2904 -0.00718735
ltoes -13.126 0 0
rfemur -48.3809 -11.9578 9.40635
rtibia 78.963 -0 0
rfoot -0.396094 2.24267 0.183151
rtoes -6.79271 0 0
lowerback 13.626 2.29485 -11.0225
upperback -0.350427 1.28566 -0.108506
thorax -8.31196 1.09305 5.91967
lowerneck -3.73025 -6.2515 -7.97299
upperneck 5.95535 -8.39484 7.65985
head 3.54446 -4.1845 3.08933
lclavicle 5.71257e-14 1.35174e-14 0
lhumerus -6.81449 -33.1391 81.4894
lradius 96.1193 -0 0
lwrist 43.5184 0 0
lhand -20.5944 19.6066 -1.77716
lfingers 7.12502 -0 0
lthumb 5.75857 49.1449 -1.73977
rclavicle 5.71257e-14 1.35174e-14 0
rhumerus 24.9444 19.4401 -50.2743
rradius 87.6379 -0 0
rwrist -9.87484 0 0
rhand -31.9097 -47.0917 -0.559111
rfingers 7.12502 -0 0
rthumb -5.15739 -76.8036 -0.557502
